<svg width="135" height="15" viewBox="0 0 135 15" fill="none" xmlns="http://www.w3.org/2000/svg">
<circle cx="67.5" cy="7.5" r="7.5" fill="#DDE0E4"/>
<circle cx="97.5" cy="7.5" r="7.5" fill="#DDE0E4"/>
<circle cx="127.5" cy="7.5" r="7.5" fill="#DDE0E4"/>
<path fill-rule="evenodd" clip-rule="evenodd" d="M7.55721 14.9998C7.53816 14.9999 7.51909 15 7.5 15C7.48091 15 7.46184 14.9999 7.44279 14.9998H6.9469V14.9799C3.06303 14.6968 0 11.4561 0 7.5C0 3.54389 3.06303 0.30319 6.9469 0.0200851V0H7.5H37.0841V0.011337C37.2218 0.00381182 37.3604 0 37.5 0C41.6421 0 45 3.35786 45 7.5C45 11.6421 41.6421 15 37.5 15C37.3604 15 37.2218 14.9962 37.0841 14.9887V14.9998H7.55721Z" fill="#F53838"/>
</svg>
