<svg width="71" height="65" viewBox="0 0 71 65" fill="none" xmlns="http://www.w3.org/2000/svg">
<path d="M6.22 57.2C5.12667 57.2 4.17333 57.0267 3.36 56.68C2.56 56.3333 1.94667 55.88 1.52 55.32C1.10667 54.7467 0.886667 54.1333 0.86 53.48C0.86 53.3733 0.9 53.28 0.98 53.2C1.06 53.12 1.16 53.08 1.28 53.08H2.26C2.5 53.08 2.66667 53.2133 2.76 53.48C2.88 54.04 3.22 54.5267 3.78 54.94C4.35333 55.34 5.16667 55.54 6.22 55.54C7.35333 55.54 8.2 55.34 8.76 54.94C9.32 54.54 9.6 53.9867 9.6 53.28C9.6 52.8267 9.46 52.4533 9.18 52.16C8.91333 51.8667 8.50667 51.6133 7.96 51.4C7.42667 51.1733 6.62 50.9 5.54 50.58C4.51333 50.2867 3.69333 49.9733 3.08 49.64C2.48 49.3067 2.02667 48.9 1.72 48.42C1.41333 47.9267 1.26 47.3067 1.26 46.56C1.26 45.84 1.45333 45.2 1.84 44.64C2.22667 44.0667 2.78667 43.62 3.52 43.3C4.25333 42.9667 5.12 42.8 6.12 42.8C7.16 42.8 8.04667 42.9867 8.78 43.36C9.52667 43.72 10.0933 44.18 10.48 44.74C10.8667 45.2867 11.0733 45.84 11.1 46.4C11.1 46.52 11.06 46.62 10.98 46.7C10.9 46.78 10.8 46.82 10.68 46.82H9.68C9.57333 46.82 9.47333 46.7867 9.38 46.72C9.28667 46.6533 9.22 46.5533 9.18 46.42C9.1 45.8467 8.78 45.3733 8.22 45C7.66 44.6267 6.96 44.44 6.12 44.44C5.21333 44.44 4.49333 44.62 3.96 44.98C3.42667 45.3267 3.16 45.8467 3.16 46.54C3.16 47.0067 3.28 47.3867 3.52 47.68C3.77333 47.9733 4.15333 48.2333 4.66 48.46C5.18 48.6867 5.93333 48.9467 6.92 49.24C8.05333 49.56 8.94 49.88 9.58 50.2C10.2333 50.52 10.72 50.92 11.04 51.4C11.36 51.8667 11.52 52.4733 11.52 53.22C11.52 54.4733 11.04 55.4533 10.08 56.16C9.13333 56.8533 7.84667 57.2 6.22 57.2ZM18.0223 57.2C16.6623 57.2 15.5757 56.78 14.7623 55.94C13.949 55.0867 13.5023 53.9267 13.4223 52.46L13.4023 51.78L13.4223 51.12C13.5023 49.68 13.949 48.5333 14.7623 47.68C15.5757 46.8267 16.6623 46.4 18.0223 46.4C19.489 46.4 20.6223 46.8667 21.4223 47.8C22.2357 48.7333 22.6423 50 22.6423 51.6V51.96C22.6423 52.0933 22.5957 52.2067 22.5023 52.3C22.4223 52.38 22.3157 52.42 22.1823 52.42H15.2423V52.6C15.2823 53.4667 15.549 54.2067 16.0423 54.82C16.5357 55.4333 17.189 55.74 18.0023 55.74C18.629 55.74 19.1357 55.62 19.5223 55.38C19.9223 55.1267 20.2223 54.8667 20.4223 54.6C20.5423 54.44 20.6357 54.3467 20.7023 54.32C20.769 54.28 20.8823 54.26 21.0423 54.26H21.9223C22.0423 54.26 22.1423 54.2933 22.2223 54.36C22.3157 54.4267 22.3623 54.5133 22.3623 54.62C22.3623 54.9133 22.1823 55.2667 21.8223 55.68C21.4623 56.0933 20.949 56.4533 20.2823 56.76C19.629 57.0533 18.8757 57.2 18.0223 57.2ZM20.8223 51.06V51C20.8223 50.0667 20.569 49.3067 20.0623 48.72C19.5557 48.1333 18.8757 47.84 18.0223 47.84C17.1557 47.84 16.4757 48.1333 15.9823 48.72C15.489 49.3067 15.2423 50.0667 15.2423 51V51.06H20.8223ZM25.5342 57C25.4009 57 25.2876 56.96 25.1942 56.88C25.1142 56.7867 25.0742 56.6733 25.0742 56.54V47.08C25.0742 46.9467 25.1142 46.8333 25.1942 46.74C25.2876 46.6467 25.4009 46.6 25.5342 46.6H26.3742C26.5209 46.6 26.6342 46.6467 26.7142 46.74C26.8076 46.82 26.8542 46.9333 26.8542 47.08V47.96C27.4009 47.0533 28.3276 46.6 29.6342 46.6H30.4142C30.5609 46.6 30.6742 46.64 30.7542 46.72C30.8342 46.8 30.8742 46.9133 30.8742 47.06V47.8C30.8742 47.9333 30.8342 48.0467 30.7542 48.14C30.6742 48.22 30.5609 48.26 30.4142 48.26H29.2742C28.5409 48.26 27.9609 48.4733 27.5342 48.9C27.1209 49.3267 26.9142 49.9067 26.9142 50.64V56.54C26.9142 56.6733 26.8676 56.7867 26.7742 56.88C26.6809 56.96 26.5676 57 26.4342 57H25.5342ZM36.2138 57C35.8671 57 35.6204 56.8333 35.4738 56.5L31.7537 47.22C31.7404 47.18 31.7338 47.1133 31.7338 47.02C31.7338 46.9 31.7738 46.8 31.8538 46.72C31.9338 46.64 32.0271 46.6 32.1338 46.6H33.0538C33.2671 46.6 33.4271 46.7067 33.5338 46.92L36.6138 54.9L39.6938 46.92C39.7204 46.84 39.7738 46.7667 39.8538 46.7C39.9471 46.6333 40.0538 46.6 40.1738 46.6H41.0938C41.2004 46.6 41.2938 46.64 41.3737 46.72C41.4538 46.8 41.4938 46.9 41.4938 47.02L41.4538 47.22L37.7538 56.5C37.6071 56.8333 37.3604 57 37.0138 57H36.2138ZM47.3778 57.2C46.0178 57.2 44.9311 56.78 44.1178 55.94C43.3045 55.0867 42.8578 53.9267 42.7778 52.46L42.7578 51.78L42.7778 51.12C42.8578 49.68 43.3045 48.5333 44.1178 47.68C44.9311 46.8267 46.0178 46.4 47.3778 46.4C48.8445 46.4 49.9778 46.8667 50.7778 47.8C51.5911 48.7333 51.9978 50 51.9978 51.6V51.96C51.9978 52.0933 51.9511 52.2067 51.8578 52.3C51.7778 52.38 51.6711 52.42 51.5378 52.42H44.5978V52.6C44.6378 53.4667 44.9045 54.2067 45.3978 54.82C45.8911 55.4333 46.5445 55.74 47.3578 55.74C47.9845 55.74 48.4911 55.62 48.8778 55.38C49.2778 55.1267 49.5778 54.8667 49.7778 54.6C49.8978 54.44 49.9911 54.3467 50.0578 54.32C50.1245 54.28 50.2378 54.26 50.3978 54.26H51.2778C51.3978 54.26 51.4978 54.2933 51.5778 54.36C51.6711 54.4267 51.7178 54.5133 51.7178 54.62C51.7178 54.9133 51.5378 55.2667 51.1778 55.68C50.8178 56.0933 50.3045 56.4533 49.6378 56.76C48.9845 57.0533 48.2311 57.2 47.3778 57.2ZM50.1778 51.06V51C50.1778 50.0667 49.9245 49.3067 49.4178 48.72C48.9111 48.1333 48.2311 47.84 47.3778 47.84C46.5111 47.84 45.8311 48.1333 45.3378 48.72C44.8445 49.3067 44.5978 50.0667 44.5978 51V51.06H50.1778ZM54.8897 57C54.7564 57 54.643 56.96 54.5497 56.88C54.4697 56.7867 54.4297 56.6733 54.4297 56.54V47.08C54.4297 46.9467 54.4697 46.8333 54.5497 46.74C54.643 46.6467 54.7564 46.6 54.8897 46.6H55.7297C55.8764 46.6 55.9897 46.6467 56.0697 46.74C56.163 46.82 56.2097 46.9333 56.2097 47.08V47.96C56.7564 47.0533 57.683 46.6 58.9897 46.6H59.7697C59.9164 46.6 60.0297 46.64 60.1097 46.72C60.1897 46.8 60.2297 46.9133 60.2297 47.06V47.8C60.2297 47.9333 60.1897 48.0467 60.1097 48.14C60.0297 48.22 59.9164 48.26 59.7697 48.26H58.6297C57.8964 48.26 57.3164 48.4733 56.8897 48.9C56.4764 49.3267 56.2697 49.9067 56.2697 50.64V56.54C56.2697 56.6733 56.223 56.7867 56.1297 56.88C56.0364 56.96 55.923 57 55.7897 57H54.8897ZM65.5092 57.2C64.5892 57.2 63.8092 57.0533 63.1692 56.76C62.5426 56.4533 62.0759 56.1067 61.7692 55.72C61.4626 55.3333 61.3092 55.0133 61.3092 54.76C61.3092 54.6267 61.3559 54.5267 61.4492 54.46C61.5426 54.38 61.6426 54.34 61.7492 54.34H62.5892C62.6692 54.34 62.7292 54.3533 62.7692 54.38C62.8226 54.4067 62.8892 54.4667 62.9692 54.56C63.2759 54.9333 63.6159 55.2267 63.9892 55.44C64.3759 55.6533 64.8892 55.76 65.5292 55.76C66.2492 55.76 66.8226 55.6267 67.2492 55.36C67.6892 55.0933 67.9092 54.7067 67.9092 54.2C67.9092 53.8667 67.8159 53.6 67.6292 53.4C67.4426 53.2 67.1292 53.02 66.6892 52.86C66.2626 52.7 65.6226 52.5267 64.7692 52.34C63.6092 52.0867 62.7892 51.72 62.3092 51.24C61.8292 50.76 61.5892 50.14 61.5892 49.38C61.5892 48.8867 61.7359 48.4133 62.0292 47.96C62.3226 47.4933 62.7559 47.12 63.3292 46.84C63.9159 46.5467 64.6092 46.4 65.4092 46.4C66.2492 46.4 66.9626 46.54 67.5492 46.82C68.1492 47.1 68.5959 47.4267 68.8892 47.8C69.1959 48.1733 69.3492 48.4867 69.3492 48.74C69.3492 48.86 69.3026 48.96 69.2092 49.04C69.1292 49.12 69.0292 49.16 68.9092 49.16H68.1492C67.9626 49.16 67.8292 49.0867 67.7492 48.94C67.5226 48.6867 67.3292 48.4933 67.1692 48.36C67.0226 48.2133 66.8026 48.0933 66.5092 48C66.2159 47.8933 65.8492 47.84 65.4092 47.84C64.7559 47.84 64.2559 47.98 63.9092 48.26C63.5626 48.5267 63.3892 48.8867 63.3892 49.34C63.3892 49.62 63.4626 49.86 63.6092 50.06C63.7559 50.2467 64.0359 50.4267 64.4492 50.6C64.8626 50.76 65.4759 50.9267 66.2892 51.1C67.5559 51.3667 68.4492 51.7467 68.9692 52.24C69.5026 52.7333 69.7692 53.3667 69.7692 54.14C69.7692 54.7133 69.6026 55.2333 69.2692 55.7C68.9492 56.1667 68.4626 56.5333 67.8092 56.8C67.1692 57.0667 66.4026 57.2 65.5092 57.2Z" fill="#4F5665"/>
<path d="M8.075 24.275C6.55833 24.275 5.25 24.0333 4.15 23.55C3.06667 23.0667 2.24167 22.425 1.675 21.625C1.125 20.825 0.833333 19.95 0.8 19C0.8 18.85 0.85 18.725 0.95 18.625C1.05 18.525 1.175 18.475 1.325 18.475H4.85C5.25 18.475 5.525 18.6333 5.675 18.95C5.90833 19.5 6.21667 19.9 6.6 20.15C7 20.4 7.49167 20.525 8.075 20.525C8.79167 20.525 9.38333 20.3083 9.85 19.875C10.3333 19.4417 10.575 18.8333 10.575 18.05C10.575 17.3667 10.3417 16.8 9.875 16.35C9.40833 15.9 8.80833 15.675 8.075 15.675C7.65833 15.675 7.325 15.7333 7.075 15.85C6.825 15.95 6.58333 16.0917 6.35 16.275C6.1 16.475 5.88333 16.575 5.7 16.575H2.225C2.075 16.575 1.94167 16.525 1.825 16.425C1.725 16.3083 1.675 16.175 1.675 16.025L2.6 7.25C2.61667 7.01667 2.7 6.83333 2.85 6.7C3.01667 6.56667 3.20833 6.5 3.425 6.5H13.6C13.7833 6.5 13.9333 6.55833 14.05 6.675C14.1667 6.79167 14.225 6.94167 14.225 7.125V9.625C14.225 9.79167 14.1667 9.94167 14.05 10.075C13.9333 10.1917 13.7833 10.25 13.6 10.25H6.325L6.025 13.325C6.425 13.0417 6.875 12.8333 7.375 12.7C7.875 12.55 8.525 12.475 9.325 12.475C10.3917 12.475 11.3917 12.7167 12.325 13.2C13.2583 13.6667 14 14.3333 14.55 15.2C15.1167 16.0667 15.4 17.0583 15.4 18.175C15.4 19.3417 15.1083 20.3917 14.525 21.325C13.9417 22.2417 13.0917 22.9667 11.975 23.5C10.875 24.0167 9.575 24.275 8.075 24.275ZM24.8092 24.25C22.5092 24.2333 20.7592 23.625 19.5592 22.425C18.3592 21.225 17.7008 19.6417 17.5842 17.675C17.5508 16.775 17.5342 15.9667 17.5342 15.25C17.5342 14.5167 17.5508 13.6833 17.5842 12.75C17.6508 11.5 17.9592 10.3917 18.5092 9.425C19.0758 8.44167 19.8842 7.66667 20.9342 7.1C22.0008 6.53333 23.2925 6.25 24.8092 6.25C26.3258 6.25 27.6175 6.53333 28.6842 7.1C29.7508 7.66667 30.5592 8.44167 31.1092 9.425C31.6758 10.3917 31.9925 11.5 32.0592 12.75C32.0925 13.2167 32.1092 14.05 32.1092 15.25C32.1092 16.4167 32.0925 17.225 32.0592 17.675C31.9425 19.6417 31.2842 21.225 30.0842 22.425C28.8842 23.625 27.1258 24.2333 24.8092 24.25ZM24.8092 20.475C25.5925 20.475 26.1758 20.225 26.5592 19.725C26.9425 19.2083 27.1508 18.4833 27.1842 17.55C27.2175 17.0667 27.2342 16.2833 27.2342 15.2C27.2342 14.1167 27.2175 13.35 27.1842 12.9C27.1508 12 26.9425 11.2917 26.5592 10.775C26.1758 10.2417 25.5925 9.975 24.8092 9.975C23.3092 9.975 22.5175 10.95 22.4342 12.9C22.4175 13.35 22.4092 14.1167 22.4092 15.2C22.4092 16.2833 22.4175 17.0667 22.4342 17.55C22.5175 19.5 23.3092 20.475 24.8092 20.475ZM39.874 23.175C39.7074 23.175 39.5574 23.1167 39.424 23C39.3074 22.8667 39.249 22.7167 39.249 22.55V18.025H34.849C34.6824 18.025 34.5324 17.9667 34.399 17.85C34.2824 17.7167 34.224 17.5667 34.224 17.4V15.475C34.224 15.2917 34.2824 15.1417 34.399 15.025C34.5157 14.8917 34.6657 14.825 34.849 14.825H39.249V10.45C39.249 10.2667 39.3074 10.1167 39.424 10C39.5574 9.88333 39.7074 9.825 39.874 9.825H42.024C42.2074 9.825 42.3574 9.88333 42.474 10C42.6074 10.1167 42.674 10.2667 42.674 10.45V14.825H47.024C47.2074 14.825 47.3574 14.8917 47.474 15.025C47.6074 15.1417 47.674 15.2917 47.674 15.475V17.4C47.674 17.5833 47.6074 17.7333 47.474 17.85C47.3574 17.9667 47.2074 18.025 47.024 18.025H42.674V22.55C42.674 22.7333 42.6074 22.8833 42.474 23C42.3574 23.1167 42.2074 23.175 42.024 23.175H39.874Z" fill="#0B132A"/>
</svg>
