<svg width="54" height="65" viewBox="0 0 54 65" fill="none" xmlns="http://www.w3.org/2000/svg">
<path d="M7.02 57.2C5.9 57.2 4.93333 57 4.12 56.6C3.32 56.2 2.7 55.5933 2.26 54.78C1.83333 53.9533 1.62 52.8933 1.62 51.6V43.48C1.62 43.3333 1.66 43.22 1.74 43.14C1.82 43.0467 1.93333 43 2.08 43H3.1C3.24667 43 3.36 43.0467 3.44 43.14C3.53333 43.22 3.58 43.3333 3.58 43.48V51.64C3.58 52.9467 3.88667 53.9133 4.5 54.54C5.11333 55.1667 5.95333 55.48 7.02 55.48C8.07333 55.48 8.90667 55.1667 9.52 54.54C10.1467 53.9133 10.46 52.9467 10.46 51.64V43.48C10.46 43.3333 10.5 43.22 10.58 43.14C10.6733 43.0467 10.7867 43 10.92 43H11.96C12.0933 43 12.2 43.0467 12.28 43.14C12.3733 43.22 12.42 43.3333 12.42 43.48V51.6C12.42 52.8933 12.2 53.9533 11.76 54.78C11.3333 55.5933 10.72 56.2 9.92 56.6C9.12 57 8.15333 57.2 7.02 57.2ZM19.0253 57.2C18.2786 57.2 17.6386 57.1067 17.1053 56.92C16.572 56.7333 16.1386 56.5067 15.8053 56.24C15.472 55.9733 15.2186 55.7067 15.0453 55.44C14.8853 55.1733 14.7986 54.96 14.7853 54.8C14.772 54.6533 14.8186 54.54 14.9253 54.46C15.032 54.38 15.1386 54.34 15.2453 54.34H16.1253C16.2053 54.34 16.2653 54.3533 16.3053 54.38C16.3586 54.3933 16.4253 54.4467 16.5053 54.54C16.6786 54.7267 16.872 54.9133 17.0853 55.1C17.2986 55.2867 17.5586 55.44 17.8653 55.56C18.1853 55.68 18.5786 55.74 19.0453 55.74C19.7253 55.74 20.2853 55.6133 20.7253 55.36C21.1653 55.0933 21.3853 54.7067 21.3853 54.2C21.3853 53.8667 21.292 53.6 21.1053 53.4C20.932 53.2 20.612 53.02 20.1453 52.86C19.692 52.7 19.0653 52.5333 18.2653 52.36C17.4653 52.1733 16.832 51.9467 16.3653 51.68C15.8986 51.4 15.5653 51.0733 15.3653 50.7C15.1653 50.3133 15.0653 49.88 15.0653 49.4C15.0653 48.9067 15.212 48.4333 15.5053 47.98C15.7986 47.5133 16.2253 47.1333 16.7853 46.84C17.3586 46.5467 18.072 46.4 18.9253 46.4C19.6186 46.4 20.212 46.4867 20.7053 46.66C21.1986 46.8333 21.6053 47.0533 21.9253 47.32C22.2453 47.5733 22.4853 47.8267 22.6453 48.08C22.8053 48.3333 22.892 48.5467 22.9053 48.72C22.9186 48.8533 22.8786 48.9667 22.7853 49.06C22.692 49.14 22.5853 49.18 22.4653 49.18H21.6253C21.532 49.18 21.452 49.16 21.3853 49.12C21.332 49.08 21.2786 49.0333 21.2253 48.98C21.092 48.8067 20.932 48.6333 20.7453 48.46C20.572 48.2867 20.3386 48.1467 20.0453 48.04C19.7653 47.92 19.392 47.86 18.9253 47.86C18.2586 47.86 17.7586 48 17.4253 48.28C17.092 48.56 16.9253 48.9133 16.9253 49.34C16.9253 49.5933 16.9986 49.82 17.1453 50.02C17.292 50.22 17.572 50.4 17.9853 50.56C18.3986 50.72 19.012 50.8933 19.8253 51.08C20.7053 51.2533 21.3986 51.4867 21.9053 51.78C22.412 52.0733 22.772 52.4133 22.9853 52.8C23.1986 53.1867 23.3053 53.6333 23.3053 54.14C23.3053 54.7 23.1386 55.2133 22.8053 55.68C22.4853 56.1467 22.0053 56.52 21.3653 56.8C20.7386 57.0667 19.9586 57.2 19.0253 57.2ZM29.7606 57.2C28.3873 57.2 27.294 56.78 26.4806 55.94C25.6673 55.0867 25.2206 53.9267 25.1406 52.46C25.1273 52.2867 25.1206 52.0667 25.1206 51.8C25.1206 51.52 25.1273 51.2933 25.1406 51.12C25.194 50.1733 25.414 49.3467 25.8006 48.64C26.1873 47.92 26.714 47.3667 27.3806 46.98C28.0606 46.5933 28.854 46.4 29.7606 46.4C30.774 46.4 31.6206 46.6133 32.3006 47.04C32.994 47.4667 33.5206 48.0733 33.8806 48.86C34.2406 49.6467 34.4206 50.5667 34.4206 51.62V51.96C34.4206 52.1067 34.374 52.22 34.2806 52.3C34.2006 52.38 34.094 52.42 33.9606 52.42H27.0406C27.0406 52.4333 27.0406 52.46 27.0406 52.5C27.0406 52.54 27.0406 52.5733 27.0406 52.6C27.0673 53.1467 27.1873 53.66 27.4006 54.14C27.614 54.6067 27.9206 54.9867 28.3206 55.28C28.7206 55.5733 29.2006 55.72 29.7606 55.72C30.2406 55.72 30.6406 55.6467 30.9606 55.5C31.2806 55.3533 31.5406 55.1933 31.7406 55.02C31.9406 54.8333 32.074 54.6933 32.1406 54.6C32.2606 54.4267 32.354 54.3267 32.4206 54.3C32.4873 54.26 32.594 54.24 32.7406 54.24H33.7006C33.834 54.24 33.9406 54.28 34.0206 54.36C34.114 54.4267 34.154 54.5267 34.1406 54.66C34.1273 54.86 34.0206 55.1067 33.8206 55.4C33.6206 55.68 33.334 55.96 32.9606 56.24C32.5873 56.52 32.134 56.7533 31.6006 56.94C31.0673 57.1133 30.454 57.2 29.7606 57.2ZM27.0406 51.04H32.5206V50.98C32.5206 50.38 32.4073 49.8467 32.1806 49.38C31.9673 48.9133 31.654 48.5467 31.2406 48.28C30.8273 48 30.334 47.86 29.7606 47.86C29.1873 47.86 28.694 48 28.2806 48.28C27.8806 48.5467 27.574 48.9133 27.3606 49.38C27.1473 49.8467 27.0406 50.38 27.0406 50.98V51.04ZM37.272 57C37.1387 57 37.0254 56.96 36.932 56.88C36.852 56.7867 36.812 56.6733 36.812 56.54V47.08C36.812 46.9467 36.852 46.8333 36.932 46.74C37.0254 46.6467 37.1387 46.6 37.272 46.6H38.192C38.3254 46.6 38.4387 46.6467 38.532 46.74C38.6254 46.8333 38.672 46.9467 38.672 47.08V47.96C38.9387 47.5067 39.3054 47.1667 39.772 46.94C40.2387 46.7133 40.7987 46.6 41.452 46.6H42.252C42.3854 46.6 42.492 46.6467 42.572 46.74C42.652 46.82 42.692 46.9267 42.692 47.06V47.88C42.692 48.0133 42.652 48.12 42.572 48.2C42.492 48.28 42.3854 48.32 42.252 48.32H41.052C40.332 48.32 39.7654 48.5333 39.352 48.96C38.9387 49.3733 38.732 49.94 38.732 50.66V56.54C38.732 56.6733 38.6854 56.7867 38.592 56.88C38.4987 56.96 38.3854 57 38.252 57H37.272ZM48.0097 57.2C47.263 57.2 46.623 57.1067 46.0897 56.92C45.5564 56.7333 45.123 56.5067 44.7897 56.24C44.4564 55.9733 44.203 55.7067 44.0297 55.44C43.8697 55.1733 43.783 54.96 43.7697 54.8C43.7564 54.6533 43.803 54.54 43.9097 54.46C44.0164 54.38 44.123 54.34 44.2297 54.34H45.1097C45.1897 54.34 45.2497 54.3533 45.2897 54.38C45.343 54.3933 45.4097 54.4467 45.4897 54.54C45.663 54.7267 45.8564 54.9133 46.0697 55.1C46.283 55.2867 46.543 55.44 46.8497 55.56C47.1697 55.68 47.563 55.74 48.0297 55.74C48.7097 55.74 49.2697 55.6133 49.7097 55.36C50.1497 55.0933 50.3697 54.7067 50.3697 54.2C50.3697 53.8667 50.2764 53.6 50.0897 53.4C49.9164 53.2 49.5964 53.02 49.1297 52.86C48.6764 52.7 48.0497 52.5333 47.2497 52.36C46.4497 52.1733 45.8164 51.9467 45.3497 51.68C44.883 51.4 44.5497 51.0733 44.3497 50.7C44.1497 50.3133 44.0497 49.88 44.0497 49.4C44.0497 48.9067 44.1964 48.4333 44.4897 47.98C44.783 47.5133 45.2097 47.1333 45.7697 46.84C46.343 46.5467 47.0564 46.4 47.9097 46.4C48.603 46.4 49.1964 46.4867 49.6897 46.66C50.183 46.8333 50.5897 47.0533 50.9097 47.32C51.2297 47.5733 51.4697 47.8267 51.6297 48.08C51.7897 48.3333 51.8764 48.5467 51.8897 48.72C51.903 48.8533 51.863 48.9667 51.7697 49.06C51.6764 49.14 51.5697 49.18 51.4497 49.18H50.6097C50.5164 49.18 50.4364 49.16 50.3697 49.12C50.3164 49.08 50.263 49.0333 50.2097 48.98C50.0764 48.8067 49.9164 48.6333 49.7297 48.46C49.5564 48.2867 49.323 48.1467 49.0297 48.04C48.7497 47.92 48.3764 47.86 47.9097 47.86C47.243 47.86 46.743 48 46.4097 48.28C46.0764 48.56 45.9097 48.9133 45.9097 49.34C45.9097 49.5933 45.983 49.82 46.1297 50.02C46.2764 50.22 46.5564 50.4 46.9697 50.56C47.383 50.72 47.9964 50.8933 48.8097 51.08C49.6897 51.2533 50.383 51.4867 50.8897 51.78C51.3964 52.0733 51.7564 52.4133 51.9697 52.8C52.183 53.1867 52.2897 53.6333 52.2897 54.14C52.2897 54.7 52.123 55.2133 51.7897 55.68C51.4697 56.1467 50.9897 56.52 50.3497 56.8C49.723 57.0667 48.943 57.2 48.0097 57.2Z" fill="#4F5665"/>
<path d="M4.3 24C4.15 24 4.025 23.95 3.925 23.85C3.825 23.7333 3.775 23.6 3.775 23.45C3.775 23.3333 3.80833 23.225 3.875 23.125L7.375 18.35C7.15833 18.4 6.93333 18.4167 6.7 18.4C5.68333 18.3333 4.71667 18.0583 3.8 17.575C2.88333 17.075 2.13333 16.3917 1.55 15.525C0.983333 14.6417 0.7 13.6417 0.7 12.525C0.7 11.425 0.975 10.4 1.525 9.45C2.09167 8.48333 2.91667 7.70833 4 7.125C5.1 6.54167 6.41667 6.25 7.95 6.25C9.5 6.25 10.8333 6.51667 11.95 7.05C13.0667 7.58333 13.9083 8.31667 14.475 9.25C15.0583 10.1667 15.35 11.2 15.35 12.35C15.35 13.2667 15.1583 14.1083 14.775 14.875C14.4083 15.625 13.85 16.5083 13.1 17.525L12.65 18.15L8.725 23.5C8.49167 23.8333 8.19167 24 7.825 24H4.3ZM8 15C8.73333 15 9.33333 14.775 9.8 14.325C10.2833 13.875 10.525 13.2667 10.525 12.5C10.525 11.7333 10.2833 11.125 9.8 10.675C9.31667 10.225 8.71667 10 8 10C7.26667 10 6.65833 10.225 6.175 10.675C5.70833 11.125 5.475 11.7333 5.475 12.5C5.475 13.2667 5.70833 13.875 6.175 14.325C6.64167 14.775 7.25 15 8 15ZM24.6871 24.25C22.3871 24.2333 20.6371 23.625 19.4371 22.425C18.2371 21.225 17.5788 19.6417 17.4621 17.675C17.4288 16.775 17.4121 15.9667 17.4121 15.25C17.4121 14.5167 17.4288 13.6833 17.4621 12.75C17.5288 11.5 17.8371 10.3917 18.3871 9.425C18.9538 8.44167 19.7621 7.66667 20.8121 7.1C21.8788 6.53333 23.1704 6.25 24.6871 6.25C26.2038 6.25 27.4954 6.53333 28.5621 7.1C29.6288 7.66667 30.4371 8.44167 30.9871 9.425C31.5538 10.3917 31.8704 11.5 31.9371 12.75C31.9704 13.2167 31.9871 14.05 31.9871 15.25C31.9871 16.4167 31.9704 17.225 31.9371 17.675C31.8204 19.6417 31.1621 21.225 29.9621 22.425C28.7621 23.625 27.0038 24.2333 24.6871 24.25ZM24.6871 20.475C25.4704 20.475 26.0538 20.225 26.4371 19.725C26.8204 19.2083 27.0288 18.4833 27.0621 17.55C27.0954 17.0667 27.1121 16.2833 27.1121 15.2C27.1121 14.1167 27.0954 13.35 27.0621 12.9C27.0288 12 26.8204 11.2917 26.4371 10.775C26.0538 10.2417 25.4704 9.975 24.6871 9.975C23.1871 9.975 22.3954 10.95 22.3121 12.9C22.2954 13.35 22.2871 14.1167 22.2871 15.2C22.2871 16.2833 22.2954 17.0667 22.3121 17.55C22.3954 19.5 23.1871 20.475 24.6871 20.475ZM39.752 23.175C39.5853 23.175 39.4353 23.1167 39.302 23C39.1853 22.8667 39.127 22.7167 39.127 22.55V18.025H34.727C34.5603 18.025 34.4103 17.9667 34.277 17.85C34.1603 17.7167 34.102 17.5667 34.102 17.4V15.475C34.102 15.2917 34.1603 15.1417 34.277 15.025C34.3936 14.8917 34.5436 14.825 34.727 14.825H39.127V10.45C39.127 10.2667 39.1853 10.1167 39.302 10C39.4353 9.88333 39.5853 9.825 39.752 9.825H41.902C42.0853 9.825 42.2353 9.88333 42.352 10C42.4853 10.1167 42.552 10.2667 42.552 10.45V14.825H46.902C47.0853 14.825 47.2353 14.8917 47.352 15.025C47.4853 15.1417 47.552 15.2917 47.552 15.475V17.4C47.552 17.5833 47.4853 17.7333 47.352 17.85C47.2353 17.9667 47.0853 18.025 46.902 18.025H42.552V22.55C42.552 22.7333 42.4853 22.8833 42.352 23C42.2353 23.1167 42.0853 23.175 41.902 23.175H39.752Z" fill="#0B132A"/>
</svg>
