<svg width="91" height="65" viewBox="0 0 91 65" fill="none" xmlns="http://www.w3.org/2000/svg">
<path d="M2.2 57C2.06667 57 1.96 56.96 1.88 56.88C1.8 56.7867 1.76 56.6733 1.76 56.54V43.46C1.76 43.3267 1.8 43.22 1.88 43.14C1.96 43.0467 2.06667 43 2.2 43H3.2C3.33333 43 3.44 43.0467 3.52 43.14C3.6 43.22 3.64 43.3267 3.64 43.46V55.32H10.32C10.4667 55.32 10.58 55.3667 10.66 55.46C10.7533 55.54 10.8 55.6467 10.8 55.78V56.54C10.8 56.6733 10.7533 56.7867 10.66 56.88C10.5667 56.96 10.4533 57 10.32 57H2.2ZM16.7161 57.2C15.2494 57.2 14.1161 56.7867 13.3161 55.96C12.5294 55.1333 12.1094 54.0333 12.0561 52.66L12.0361 51.8L12.0561 50.94C12.1094 49.5667 12.5361 48.4667 13.3361 47.64C14.1494 46.8133 15.2761 46.4 16.7161 46.4C18.1561 46.4 19.2761 46.8133 20.0761 47.64C20.8894 48.4667 21.3228 49.5667 21.3761 50.94C21.4028 51.2333 21.4161 51.52 21.4161 51.8C21.4161 52.08 21.4028 52.3667 21.3761 52.66C21.3228 54.0333 20.8961 55.1333 20.0961 55.96C19.3094 56.7867 18.1828 57.2 16.7161 57.2ZM16.7161 55.7C17.5694 55.7 18.2428 55.4333 18.7361 54.9C19.2428 54.3533 19.5161 53.5733 19.5561 52.56C19.5694 52.4267 19.5761 52.1733 19.5761 51.8C19.5761 51.4267 19.5694 51.1733 19.5561 51.04C19.5161 50.0267 19.2428 49.2533 18.7361 48.72C18.2428 48.1733 17.5694 47.9 16.7161 47.9C15.8628 47.9 15.1828 48.1733 14.6761 48.72C14.1828 49.2533 13.9161 50.0267 13.8761 51.04L13.8561 51.8L13.8761 52.56C13.9161 53.5733 14.1828 54.3533 14.6761 54.9C15.1828 55.4333 15.8628 55.7 16.7161 55.7ZM28.1014 57.2C26.6747 57.2 25.5614 56.8 24.7614 56C23.9614 55.1867 23.5414 54.0533 23.5014 52.6L23.4814 51.8L23.5014 51C23.5414 49.5467 23.9614 48.42 24.7614 47.62C25.5614 46.8067 26.6747 46.4 28.1014 46.4C29.0614 46.4 29.8681 46.5733 30.5214 46.92C31.1881 47.2533 31.6814 47.6733 32.0014 48.18C32.3347 48.6867 32.5147 49.1933 32.5414 49.7C32.5547 49.82 32.5081 49.9267 32.4014 50.02C32.3081 50.1133 32.2014 50.16 32.0814 50.16H31.2014C31.0681 50.16 30.9681 50.1333 30.9014 50.08C30.8347 50.0133 30.7681 49.9 30.7014 49.74C30.4614 49.0867 30.1281 48.6267 29.7014 48.36C29.2881 48.08 28.7614 47.94 28.1214 47.94C27.2814 47.94 26.6147 48.2 26.1214 48.72C25.6281 49.24 25.3614 50.0333 25.3214 51.1L25.3014 51.8L25.3214 52.5C25.3614 53.5667 25.6281 54.36 26.1214 54.88C26.6147 55.4 27.2814 55.66 28.1214 55.66C28.7747 55.66 29.3081 55.5267 29.7214 55.26C30.1347 54.98 30.4614 54.5133 30.7014 53.86C30.7681 53.7 30.8347 53.5933 30.9014 53.54C30.9681 53.4733 31.0681 53.44 31.2014 53.44H32.0814C32.2014 53.44 32.3081 53.4867 32.4014 53.58C32.5081 53.6733 32.5547 53.78 32.5414 53.9C32.5147 54.3933 32.3347 54.8933 32.0014 55.4C31.6814 55.9067 31.1881 56.3333 30.5214 56.68C29.8681 57.0267 29.0614 57.2 28.1014 57.2ZM37.8175 57.2C37.1642 57.2 36.5575 57.0667 35.9975 56.8C35.4508 56.5333 35.0108 56.1733 34.6775 55.72C34.3575 55.2533 34.1975 54.74 34.1975 54.18C34.1975 53.3 34.5575 52.58 35.2775 52.02C35.9975 51.46 36.9775 51.0867 38.2175 50.9L41.2175 50.48V49.9C41.2175 48.5267 40.4242 47.84 38.8375 47.84C38.2242 47.84 37.7308 47.9667 37.3575 48.22C36.9842 48.46 36.7108 48.7467 36.5375 49.08C36.4842 49.2133 36.4242 49.3067 36.3575 49.36C36.3042 49.4 36.2242 49.42 36.1175 49.42H35.3375C35.2175 49.42 35.1108 49.38 35.0175 49.3C34.9375 49.2067 34.8975 49.1 34.8975 48.98C34.8975 48.6733 35.0375 48.32 35.3175 47.92C35.6108 47.5067 36.0575 47.1533 36.6575 46.86C37.2575 46.5533 37.9908 46.4 38.8575 46.4C40.3508 46.4 41.4175 46.7467 42.0575 47.44C42.7108 48.1333 43.0375 49 43.0375 50.04V56.54C43.0375 56.6733 42.9908 56.7867 42.8975 56.88C42.8175 56.96 42.7108 57 42.5775 57H41.6975C41.5642 57 41.4575 56.96 41.3775 56.88C41.2975 56.7867 41.2575 56.6733 41.2575 56.54V55.66C40.9642 56.1 40.5375 56.4667 39.9775 56.76C39.4175 57.0533 38.6975 57.2 37.8175 57.2ZM38.2175 55.74C39.0975 55.74 39.8175 55.4533 40.3775 54.88C40.9375 54.3067 41.2175 53.4733 41.2175 52.38V51.82L38.8775 52.16C37.9175 52.2933 37.1908 52.52 36.6975 52.84C36.2042 53.16 35.9575 53.56 35.9575 54.04C35.9575 54.5867 36.1775 55.0067 36.6175 55.3C37.0708 55.5933 37.6042 55.74 38.2175 55.74ZM49.8359 57C47.7693 57 46.7359 55.8333 46.7359 53.5V48.14H45.1559C45.0226 48.14 44.9159 48.1 44.8359 48.02C44.7559 47.94 44.7159 47.8333 44.7159 47.7V47.06C44.7159 46.9267 44.7559 46.82 44.8359 46.74C44.9159 46.6467 45.0226 46.6 45.1559 46.6H46.7359V43.26C46.7359 43.1267 46.7759 43.02 46.8559 42.94C46.9359 42.8467 47.0426 42.8 47.1759 42.8H48.0559C48.1893 42.8 48.2959 42.8467 48.3759 42.94C48.4693 43.02 48.5159 43.1267 48.5159 43.26V46.6H50.9959C51.1293 46.6 51.2359 46.6467 51.3159 46.74C51.4093 46.82 51.4559 46.9267 51.4559 47.06V47.7C51.4559 47.8333 51.4093 47.94 51.3159 48.02C51.2359 48.1 51.1293 48.14 50.9959 48.14H48.5159V53.36C48.5159 54.04 48.6226 54.5533 48.8359 54.9C49.0626 55.2467 49.4426 55.42 49.9759 55.42H51.1959C51.3293 55.42 51.4359 55.4667 51.5159 55.56C51.5959 55.64 51.6359 55.7467 51.6359 55.88V56.54C51.6359 56.6733 51.5959 56.7867 51.5159 56.88C51.4359 56.96 51.3293 57 51.1959 57H49.8359ZM53.8898 44.64C53.7565 44.64 53.6432 44.6 53.5498 44.52C53.4698 44.4267 53.4298 44.3133 53.4298 44.18V43.14C53.4298 43.0067 53.4698 42.8933 53.5498 42.8C53.6432 42.7067 53.7565 42.66 53.8898 42.66H55.0698C55.2032 42.66 55.3165 42.7067 55.4098 42.8C55.5032 42.8933 55.5498 43.0067 55.5498 43.14V44.18C55.5498 44.3133 55.5032 44.4267 55.4098 44.52C55.3165 44.6 55.2032 44.64 55.0698 44.64H53.8898ZM54.0498 57C53.9165 57 53.8032 56.96 53.7098 56.88C53.6298 56.7867 53.5898 56.6733 53.5898 56.54V47.06C53.5898 46.9267 53.6298 46.82 53.7098 46.74C53.8032 46.6467 53.9165 46.6 54.0498 46.6H54.9298C55.0632 46.6 55.1698 46.6467 55.2498 46.74C55.3432 46.82 55.3898 46.9267 55.3898 47.06V56.54C55.3898 56.6733 55.3432 56.7867 55.2498 56.88C55.1698 56.96 55.0632 57 54.9298 57H54.0498ZM62.6145 57.2C61.1479 57.2 60.0145 56.7867 59.2145 55.96C58.4279 55.1333 58.0079 54.0333 57.9545 52.66L57.9345 51.8L57.9545 50.94C58.0079 49.5667 58.4345 48.4667 59.2345 47.64C60.0479 46.8133 61.1745 46.4 62.6145 46.4C64.0545 46.4 65.1745 46.8133 65.9745 47.64C66.7879 48.4667 67.2212 49.5667 67.2745 50.94C67.3012 51.2333 67.3145 51.52 67.3145 51.8C67.3145 52.08 67.3012 52.3667 67.2745 52.66C67.2212 54.0333 66.7945 55.1333 65.9945 55.96C65.2079 56.7867 64.0812 57.2 62.6145 57.2ZM62.6145 55.7C63.4679 55.7 64.1412 55.4333 64.6345 54.9C65.1412 54.3533 65.4145 53.5733 65.4545 52.56C65.4679 52.4267 65.4745 52.1733 65.4745 51.8C65.4745 51.4267 65.4679 51.1733 65.4545 51.04C65.4145 50.0267 65.1412 49.2533 64.6345 48.72C64.1412 48.1733 63.4679 47.9 62.6145 47.9C61.7612 47.9 61.0812 48.1733 60.5745 48.72C60.0812 49.2533 59.8145 50.0267 59.7745 51.04L59.7545 51.8L59.7745 52.56C59.8145 53.5733 60.0812 54.3533 60.5745 54.9C61.0812 55.4333 61.7612 55.7 62.6145 55.7ZM70.2998 57C70.1665 57 70.0532 56.96 69.9598 56.88C69.8798 56.7867 69.8398 56.6733 69.8398 56.54V47.06C69.8398 46.9267 69.8798 46.82 69.9598 46.74C70.0532 46.6467 70.1665 46.6 70.2998 46.6H71.1598C71.3065 46.6 71.4198 46.64 71.4998 46.72C71.5798 46.8 71.6198 46.9133 71.6198 47.06V47.94C72.0198 47.4467 72.4798 47.0667 72.9998 46.8C73.5332 46.5333 74.1932 46.4 74.9798 46.4C76.2598 46.4 77.2532 46.8133 77.9598 47.64C78.6665 48.4533 79.0198 49.5333 79.0198 50.88V56.54C79.0198 56.6733 78.9732 56.7867 78.8798 56.88C78.7998 56.96 78.6932 57 78.5598 57H77.6398C77.5065 57 77.3932 56.96 77.2998 56.88C77.2198 56.7867 77.1798 56.6733 77.1798 56.54V51C77.1798 50.04 76.9465 49.2933 76.4798 48.76C76.0132 48.2267 75.3465 47.96 74.4798 47.96C73.6265 47.96 72.9465 48.2333 72.4398 48.78C71.9332 49.3133 71.6798 50.0533 71.6798 51V56.54C71.6798 56.6733 71.6332 56.7867 71.5398 56.88C71.4598 56.96 71.3532 57 71.2198 57H70.2998ZM85.4702 57.2C84.5502 57.2 83.7702 57.0533 83.1302 56.76C82.5035 56.4533 82.0368 56.1067 81.7302 55.72C81.4235 55.3333 81.2702 55.0133 81.2702 54.76C81.2702 54.6267 81.3168 54.5267 81.4102 54.46C81.5035 54.38 81.6035 54.34 81.7102 54.34H82.5502C82.6302 54.34 82.6902 54.3533 82.7302 54.38C82.7835 54.4067 82.8502 54.4667 82.9302 54.56C83.2368 54.9333 83.5768 55.2267 83.9502 55.44C84.3368 55.6533 84.8502 55.76 85.4902 55.76C86.2102 55.76 86.7835 55.6267 87.2102 55.36C87.6502 55.0933 87.8702 54.7067 87.8702 54.2C87.8702 53.8667 87.7768 53.6 87.5902 53.4C87.4035 53.2 87.0902 53.02 86.6502 52.86C86.2235 52.7 85.5835 52.5267 84.7302 52.34C83.5702 52.0867 82.7502 51.72 82.2702 51.24C81.7902 50.76 81.5502 50.14 81.5502 49.38C81.5502 48.8867 81.6968 48.4133 81.9902 47.96C82.2835 47.4933 82.7168 47.12 83.2902 46.84C83.8768 46.5467 84.5702 46.4 85.3702 46.4C86.2102 46.4 86.9235 46.54 87.5102 46.82C88.1102 47.1 88.5568 47.4267 88.8502 47.8C89.1568 48.1733 89.3102 48.4867 89.3102 48.74C89.3102 48.86 89.2635 48.96 89.1702 49.04C89.0902 49.12 88.9902 49.16 88.8702 49.16H88.1102C87.9235 49.16 87.7902 49.0867 87.7102 48.94C87.4835 48.6867 87.2902 48.4933 87.1302 48.36C86.9835 48.2133 86.7635 48.0933 86.4702 48C86.1768 47.8933 85.8102 47.84 85.3702 47.84C84.7168 47.84 84.2168 47.98 83.8702 48.26C83.5235 48.5267 83.3502 48.8867 83.3502 49.34C83.3502 49.62 83.4235 49.86 83.5702 50.06C83.7168 50.2467 83.9968 50.4267 84.4102 50.6C84.8235 50.76 85.4368 50.9267 86.2502 51.1C87.5168 51.3667 88.4102 51.7467 88.9302 52.24C89.4635 52.7333 89.7302 53.3667 89.7302 54.14C89.7302 54.7133 89.5635 55.2333 89.2302 55.7C88.9102 56.1667 88.4235 56.5333 87.7702 56.8C87.1302 57.0667 86.3635 57.2 85.4702 57.2Z" fill="#4F5665"/>
<path d="M8.175 24.25C6.54167 24.25 5.16667 24 4.05 23.5C2.95 22.9833 2.13333 22.35 1.6 21.6C1.08333 20.85 0.808333 20.1 0.775 19.35C0.775 19.2 0.825 19.075 0.925 18.975C1.04167 18.875 1.175 18.825 1.325 18.825H4.775C4.975 18.825 5.13333 18.8667 5.25 18.95C5.36667 19.0167 5.475 19.1333 5.575 19.3C5.89167 20.1167 6.76667 20.525 8.2 20.525C9.01667 20.525 9.65 20.3333 10.1 19.95C10.55 19.5667 10.775 19.05 10.775 18.4C10.775 17.15 9.94167 16.525 8.275 16.525H5.475C5.29167 16.525 5.13333 16.4667 5 16.35C4.88333 16.2167 4.825 16.0583 4.825 15.875V14.4C4.825 14.0167 4.96667 13.7333 5.25 13.55L9.275 10.25H2.375C2.20833 10.25 2.05833 10.1917 1.925 10.075C1.80833 9.94167 1.75 9.79167 1.75 9.625V7.15C1.75 6.96667 1.80833 6.81667 1.925 6.7C2.04167 6.56667 2.19167 6.5 2.375 6.5H14.025C14.2083 6.5 14.3583 6.56667 14.475 6.7C14.5917 6.81667 14.65 6.96667 14.65 7.15V9.375C14.65 9.725 14.5167 10 14.25 10.2L10.55 13.575L10.725 13.625C12.225 13.8417 13.4167 14.3583 14.3 15.175C15.1833 15.9917 15.625 17.1667 15.625 18.7C15.625 19.8167 15.3 20.8 14.65 21.65C14.0167 22.4833 13.1333 23.125 12 23.575C10.8833 24.025 9.60833 24.25 8.175 24.25ZM25.151 24.25C22.851 24.2333 21.101 23.625 19.901 22.425C18.701 21.225 18.0426 19.6417 17.926 17.675C17.8926 16.775 17.876 15.9667 17.876 15.25C17.876 14.5167 17.8926 13.6833 17.926 12.75C17.9926 11.5 18.301 10.3917 18.851 9.425C19.4176 8.44167 20.226 7.66667 21.276 7.1C22.3426 6.53333 23.6343 6.25 25.151 6.25C26.6676 6.25 27.9593 6.53333 29.026 7.1C30.0926 7.66667 30.901 8.44167 31.451 9.425C32.0176 10.3917 32.3343 11.5 32.401 12.75C32.4343 13.2167 32.451 14.05 32.451 15.25C32.451 16.4167 32.4343 17.225 32.401 17.675C32.2843 19.6417 31.626 21.225 30.426 22.425C29.226 23.625 27.4676 24.2333 25.151 24.25ZM25.151 20.475C25.9343 20.475 26.5176 20.225 26.901 19.725C27.2843 19.2083 27.4926 18.4833 27.526 17.55C27.5593 17.0667 27.576 16.2833 27.576 15.2C27.576 14.1167 27.5593 13.35 27.526 12.9C27.4926 12 27.2843 11.2917 26.901 10.775C26.5176 10.2417 25.9343 9.975 25.151 9.975C23.651 9.975 22.8593 10.95 22.776 12.9C22.7593 13.35 22.751 14.1167 22.751 15.2C22.751 16.2833 22.7593 17.0667 22.776 17.55C22.8593 19.5 23.651 20.475 25.151 20.475ZM40.2158 23.175C40.0492 23.175 39.8992 23.1167 39.7658 23C39.6492 22.8667 39.5908 22.7167 39.5908 22.55V18.025H35.1908C35.0242 18.025 34.8742 17.9667 34.7408 17.85C34.6242 17.7167 34.5658 17.5667 34.5658 17.4V15.475C34.5658 15.2917 34.6242 15.1417 34.7408 15.025C34.8575 14.8917 35.0075 14.825 35.1908 14.825H39.5908V10.45C39.5908 10.2667 39.6492 10.1167 39.7658 10C39.8992 9.88333 40.0492 9.825 40.2158 9.825H42.3658C42.5492 9.825 42.6992 9.88333 42.8158 10C42.9492 10.1167 43.0158 10.2667 43.0158 10.45V14.825H47.3658C47.5492 14.825 47.6992 14.8917 47.8158 15.025C47.9492 15.1417 48.0158 15.2917 48.0158 15.475V17.4C48.0158 17.5833 47.9492 17.7333 47.8158 17.85C47.6992 17.9667 47.5492 18.025 47.3658 18.025H43.0158V22.55C43.0158 22.7333 42.9492 22.8833 42.8158 23C42.6992 23.1167 42.5492 23.175 42.3658 23.175H40.2158Z" fill="#0B132A"/>
</svg>
