<svg width="70" height="70" viewBox="0 0 70 70" fill="none" xmlns="http://www.w3.org/2000/svg">
<g filter="url(#filter0_d_1_133)">
<circle cx="34.7999" cy="21.7999" r="16.7999" fill="#F53838"/>
</g>
<path d="M40.0499 21.8C40.0499 23.1924 39.4968 24.5277 38.5122 25.5123C37.5276 26.4969 36.1923 27.05 34.7999 27.05C33.4075 27.05 32.0721 26.4969 31.0876 25.5123C30.103 24.5277 29.5499 23.1924 29.5499 21.8C29.5499 21.5008 29.5814 21.2085 29.6356 20.925H27.7999V27.9198C27.7999 28.4063 28.1936 28.8 28.6801 28.8H40.9214C41.1545 28.7995 41.378 28.7066 41.5427 28.5416C41.7074 28.3765 41.7999 28.1529 41.7999 27.9198V20.925H39.9641C40.0184 21.2085 40.0499 21.5008 40.0499 21.8ZM34.7999 25.3C35.2596 25.2999 35.7148 25.2092 36.1395 25.0332C36.5642 24.8571 36.9501 24.5992 37.2751 24.274C37.6001 23.9488 37.8579 23.5628 38.0337 23.138C38.2096 22.7133 38.3 22.258 38.2999 21.7983C38.2998 21.3385 38.2091 20.8833 38.0331 20.4586C37.857 20.0339 37.599 19.648 37.2739 19.323C36.9487 18.998 36.5627 18.7402 36.1379 18.5644C35.7131 18.3886 35.2579 18.2981 34.7981 18.2983C33.8696 18.2985 32.9793 18.6675 32.3229 19.3243C31.6665 19.981 31.2979 20.8715 31.2981 21.8C31.2984 22.7285 31.6674 23.6189 32.3241 24.2752C32.9808 24.9316 33.8714 25.3002 34.7999 25.3ZM38.9999 18.125H41.0981C41.2375 18.125 41.3712 18.0697 41.47 17.9713C41.5687 17.8729 41.6244 17.7394 41.6249 17.6V15.5018C41.6249 15.362 41.5694 15.2281 41.4706 15.1293C41.3718 15.0305 41.2378 14.975 41.0981 14.975H38.9999C38.8602 14.975 38.7262 15.0305 38.6274 15.1293C38.5286 15.2281 38.4731 15.362 38.4731 15.5018V17.6C38.4749 17.8888 38.7111 18.125 38.9999 18.125ZM34.7999 5C30.3442 5 26.0711 6.76999 22.9205 9.92061C19.7699 13.0712 17.9999 17.3444 17.9999 21.8C17.9999 26.2556 19.7699 30.5288 22.9205 33.6794C26.0711 36.83 30.3442 38.6 34.7999 38.6C37.0061 38.6 39.1907 38.1655 41.229 37.3212C43.2672 36.4769 45.1193 35.2394 46.6793 33.6794C48.2393 32.1194 49.4768 30.2674 50.3211 28.2291C51.1653 26.1908 51.5999 24.0062 51.5999 21.8C51.5999 19.5938 51.1653 17.4092 50.3211 15.3709C49.4768 13.3326 48.2393 11.4806 46.6793 9.92061C45.1193 8.36058 43.2672 7.1231 41.229 6.27882C39.1907 5.43454 37.0061 5 34.7999 5ZM43.5499 28.6058C43.5499 29.675 42.6749 30.55 41.6056 30.55H27.9941C26.9249 30.55 26.0499 29.675 26.0499 28.6058V14.9943C26.0499 13.925 26.9249 13.05 27.9941 13.05H41.6056C42.6749 13.05 43.5499 13.925 43.5499 14.9943V28.6058Z" fill="white"/>
<defs>
<filter id="filter0_d_1_133" x="0" y="0" width="69.5999" height="69.5999" filterUnits="userSpaceOnUse" color-interpolation-filters="sRGB">
<feFlood flood-opacity="0" result="BackgroundImageFix"/>
<feColorMatrix in="SourceAlpha" type="matrix" values="0 0 0 0 0 0 0 0 0 0 0 0 0 0 0 0 0 0 127 0" result="hardAlpha"/>
<feOffset dy="13"/>
<feGaussianBlur stdDeviation="9"/>
<feColorMatrix type="matrix" values="0 0 0 0 0.0658854 0 0 0 0 0.0730469 0 0 0 0 0.1375 0 0 0 0.08 0"/>
<feBlend mode="normal" in2="BackgroundImageFix" result="effect1_dropShadow_1_133"/>
<feBlend mode="normal" in="SourceGraphic" in2="effect1_dropShadow_1_133" result="shape"/>
</filter>
</defs>
</svg>
